<svg version="1.1" height="106" width="106" xmlns="http://www.w3.org/2000/svg"
  xmlns:xlink="http://www.w3.org/1999/xlink">
  <title>The Hermit Logo</title>
  <desc>
    This is the logo of the Hermit Operating System Project.
    The logo is a stylized hermit crab, with the Rust Logo's gear for a shell.
  </desc>
  <g id="logo" transform="translate(53, 53)">
    <defs>
      <linearGradient id="gradient" x1="0" x2="0" y1="50" y2="-43" gradientUnits="userSpaceOnUse">
        <stop offset="0" stop-color="#ff8000" />
        <stop offset="1" stop-color="#ffb000" />
      </linearGradient>
    </defs>
    <circle r="43" fill="url('#gradient')" />
    <g id="gear" mask="url(#holes)">
      <circle r="43" fill="none" stroke="black" stroke-width="9" />
      <g id="cogs">
        <polygon id="cog" stroke="black" stroke-width="3" stroke-linejoin="round" points="46,3 51,0 46,-3" />
        <use xlink:href="#cog" transform="rotate(11.25)" />
        <use xlink:href="#cog" transform="rotate(22.50)" />
        <use xlink:href="#cog" transform="rotate(33.75)" />
        <use xlink:href="#cog" transform="rotate(45.00)" />
        <use xlink:href="#cog" transform="rotate(56.25)" />
        <use xlink:href="#cog" transform="rotate(67.50)" />
        <use xlink:href="#cog" transform="rotate(78.75)" />
        <use xlink:href="#cog" transform="rotate(90.00)" />
        <use xlink:href="#cog" transform="rotate(101.25)" />
        <use xlink:href="#cog" transform="rotate(112.50)" />
        <use xlink:href="#cog" transform="rotate(123.75)" />
        <use xlink:href="#cog" transform="rotate(135.00)" />
        <use xlink:href="#cog" transform="rotate(146.25)" />
        <use xlink:href="#cog" transform="rotate(157.50)" />
        <use xlink:href="#cog" transform="rotate(168.75)" />
        <use xlink:href="#cog" transform="rotate(180.00)" />
        <use xlink:href="#cog" transform="rotate(191.25)" />
        <use xlink:href="#cog" transform="rotate(202.50)" />
        <use xlink:href="#cog" transform="rotate(213.75)" />
        <use xlink:href="#cog" transform="rotate(225.00)" />
        <use xlink:href="#cog" transform="rotate(236.25)" />
        <use xlink:href="#cog" transform="rotate(247.50)" />
        <use xlink:href="#cog" transform="rotate(258.75)" />
        <use xlink:href="#cog" transform="rotate(270.00)" />
        <use xlink:href="#cog" transform="rotate(281.25)" />
        <use xlink:href="#cog" transform="rotate(292.50)" />
        <use xlink:href="#cog" transform="rotate(303.75)" />
        <use xlink:href="#cog" transform="rotate(315.00)" />
        <use xlink:href="#cog" transform="rotate(326.25)" />
        <use xlink:href="#cog" transform="rotate(337.50)" />
        <use xlink:href="#cog" transform="rotate(348.75)" />
      </g>
      <g id="mounts">
        <polygon id="mount" stroke="black" stroke-width="6" stroke-linejoin="round" points="-7,-42 0,-35 7,-42" />
        <use xlink:href="#mount" transform="rotate(72)" />
        <use xlink:href="#mount" transform="rotate(144)" />
        <use xlink:href="#mount" transform="rotate(216)" />
        <use xlink:href="#mount" transform="rotate(288)" />
      </g>
    </g>
    <mask id="holes">
      <rect x="-60" y="-60" width="120" height="120" fill="white" />
      <circle id="hole" cy="-40" r="3" />
      <use xlink:href="#hole" transform="rotate(72)" />
      <use xlink:href="#hole" transform="rotate(144)" />
      <use xlink:href="#hole" transform="rotate(216)" />
      <use xlink:href="#hole" transform="rotate(288)" />
    </mask>
    <g id="left_side">
      <path id="outer_leg" fill="url('#gradient')" stroke="black" stroke-linecap="round" stroke-linejoin="round" d="
        M -34,14
        c -6,2  -10,5   -10,5
          -2,2   -2,8    -2,14
           0,0   -4,-8   -4,-13
           0,-4  14,-10  14,-10" />
      <path id="inner_leg" fill="url('#gradient')" stroke="black" stroke-linecap="round" stroke-linejoin="round" d="
        M -28,20
        c -6,2  -10,5  -10,5
          -2,2   -2,8   -2,14
           0,0   -4,-8  -4,-13
           0,-4  12,-9  12,-9" />
      <path id="pincer" stroke="black" stroke-linecap="round" stroke-linejoin="round" fill="url('#gradient')" d="
        M -16,12
        c -6.5,4.5  -7.5,11      -8,11
          -5.5,1.5   -10,1    -12.5,9
          -2.5,6.5    -1,12.5     0,17.5
           3.5,-7.5    6,-12     11,-15
             3,6.5   2.5,10.5     4,16.5
             0,0      10,-6      10,-15
             0,-5.5   -8,-12     -8,-12
             1,-3.5    3,-7       6,-10" />
      <path id="eye_base" fill="none" stroke="black" stroke-linecap="round" stroke-linejoin="round" d="
        M -7,-14.3
        c -4,6 0,10 0,10
        m -9.75,-7.5
        c 6,5 5.75,7.5 5.75,7.5" />
      <ellipse id="eye" cx="-13" cy="-20" rx="8" ry="10" />
    </g>
    <use xlink:href="#left_side" transform="scale(-1,1)" />
    <g transform="translate(-2,-2.5)">
      <ellipse id="pupil" cx="-13" cy="-20" rx="4" ry="5" fill="white" />
      <use xlink:href="#pupil" transform="scale(-1,1)" />
    </g>
    <g id="mouth" transform="translate(0,5)">
      <mask id="mouth_mask">
        <rect x="-60" y="-60" width="120" height="120" fill="white" />
        <ellipse cy="-5" rx="15" ry="10" />
      </mask>
      <ellipse mask="url(#mouth_mask)" rx="10" ry="10" />
    </g>
  </g>
</svg>